<svg id="Layer_1" data-name="Layer 1" xmlns="http://www.w3.org/2000/svg" viewBox="0 0 345 83.03"><defs><style>.cls-1{fill:#2f90e1;}.cls-2{fill:none;}.cls-3{fill:#0178da;}.cls-4{fill:#2d2f51;}.cls-5{fill:#2fc9d7;}</style></defs><path class="cls-1" d="M77.61,60.21s-.18.35-.47.88A9.56,9.56,0,0,0,77.61,60.21Z"/><path class="cls-2" d="M18.29,34.55c.1-.34.19-.68.3-1Q18.43,34,18.29,34.55Z"/><path class="cls-3" d="M82,45c.5-3.77.44-11.56-.75-13.79C67.9,53.82,44,60.32,27.38,50.59h0C39.23,61,61.07,67.32,82,45Z"/><path class="cls-1" d="M82,45C61.07,67.32,39.23,61,27.37,50.6A30.14,30.14,0,0,1,19.5,40.33c5.8,28.26,39.71,34.22,58.11,19.88,3.61-7.68,3.64-13,4.41-15.26Z"/><path class="cls-4" d="M25.82,66.91a41.69,41.69,0,0,1-6.93-11.79A31.4,31.4,0,0,1,16.94,46a34.09,34.09,0,0,1,1.35-11.47q.13-.51.3-1c0-.09.05-.19.08-.29v0A46.18,46.18,0,0,1,26.47,19a80,80,0,0,0,5.93,5.72c.23.21.5.22.58-.07,3-11.14,5-16.95,8.74-23.87A.52.52,0,0,0,41.24,0C26.85.74,13.61,4.22,6.81,8.13a.23.23,0,0,0,.07.42c2.81.76,4.35.84,5.84,1.45C1,24.23-4.25,42,4.07,60.41,12.1,78.62,35,90,58.39,78.19,44,80.94,33.4,75,25.82,66.91Z"/><path class="cls-5" d="M18.59,33.53c0-.09.05-.18.08-.27v0C18.64,33.34,18.62,33.44,18.59,33.53Z"/><path class="cls-5" d="M19.5,40.33a43.34,43.34,0,0,1-.83-7.07c0,.09-.05.18-.08.27-.11.34-.2.68-.3,1A34.09,34.09,0,0,0,16.94,46a31.4,31.4,0,0,0,1.95,9.1,41.69,41.69,0,0,0,6.93,11.79C33.4,75,44,80.94,58.39,78.19l.11,0A40.67,40.67,0,0,0,77.14,61.09c.29-.53.45-.85.47-.88C59.21,74.55,25.3,68.59,19.5,40.33Z"/><path class="cls-4" d="M117.89,75.09V49l-.08-.13c-4.24-6.59-8.29-13.19-12-19.64S98.25,16,94.74,9.33L94,7.94h16.12l.25.55c2.18,4.86,4.61,9.75,7.22,14.54,2.22,4.07,4.58,8.18,7,12.21l.44.72.43-.72c2.38-4,4.75-8.13,7-12.22,2.68-4.79,5.14-9.67,7.31-14.52l.25-.56h15.37l-.73,1.39c-3.5,6.63-7.2,13.31-11,19.85s-7.77,13-12,19.5l-.08.13V75.09Z"/><path class="cls-4" d="M183.78,76.66a49.49,49.49,0,0,1-11.09-1.16,23.27,23.27,0,0,1-8.49-3.7,17.38,17.38,0,0,1-5.44-6.59,23,23,0,0,1-2-10.07A19.46,19.46,0,0,1,159,45.48a18.33,18.33,0,0,1,6-6.41,26.38,26.38,0,0,1,8.89-3.58,50.54,50.54,0,0,1,10.65-1.1,47.08,47.08,0,0,1,5.41.33,50.47,50.47,0,0,1,6.07,1.09l.62.15V32.72a20.8,20.8,0,0,0-.67-5.35,10.93,10.93,0,0,0-6.88-7.64,19.38,19.38,0,0,0-6.9-1.07,59.65,59.65,0,0,0-10.12.79,48,48,0,0,0-6.94,1.64l-1.8-11.75a65.55,65.55,0,0,1,8.26-1.93,68.17,68.17,0,0,1,12.16-1,38.17,38.17,0,0,1,13,1.93,20.45,20.45,0,0,1,8.34,5.34A20,20,0,0,1,209.56,22a41.24,41.24,0,0,1,1.35,10.88V73.76c-2.44.5-6,1.11-10.58,1.8A113.05,113.05,0,0,1,183.78,76.66Zm3.13-31.94a37.59,37.59,0,0,0-5.35.4,17.27,17.27,0,0,0-5,1.48,9.28,9.28,0,0,0-3.65,3.1,8.75,8.75,0,0,0-1.39,5c0,3.91,1.26,6.66,3.76,8.19s5.71,2.22,9.78,2.22a59.22,59.22,0,0,0,11.18-.79l.4-.08V46l-.36-.11a30.76,30.76,0,0,0-3.84-.8A36.49,36.49,0,0,0,186.91,44.72Z"/><path class="cls-4" d="M242.46,76.46c-2.71,0-5.84-.12-9.31-.34a64.53,64.53,0,0,1-9.92-1.43l-.28-.06V8.31l.28-.07a60.05,60.05,0,0,1,10-1.38c3.48-.19,6.64-.29,9.39-.29a57.16,57.16,0,0,1,15.63,2,32.5,32.5,0,0,1,12.2,6.32,28.65,28.65,0,0,1,7.87,10.88,40.44,40.44,0,0,1,2.76,15.63,39.85,39.85,0,0,1-2.76,15.43,29.42,29.42,0,0,1-7.86,11,32.83,32.83,0,0,1-12.25,6.52A55.37,55.37,0,0,1,242.46,76.46Zm1-58.51c-3.05,0-5.4.07-7,.21l-.46,0V64.82l.47,0c.57,0,1.24.06,2,.08,1.17,0,2.76,0,4.78,0,8.13,0,14.27-2.08,18.24-6.19s6-9.95,6-17.37S265.52,28,261.63,24,251.63,18,243.43,18Z"/><path class="cls-4" d="M318.12,76.66a32,32,0,0,1-11.89-2A22.06,22.06,0,0,1,298,69a23.12,23.12,0,0,1-4.85-8.52,35,35,0,0,1-1.56-10.72V7.67h13v41a25.93,25.93,0,0,0,1,7.65,13.32,13.32,0,0,0,2.82,5.12,11.22,11.22,0,0,0,4.3,2.9,16.21,16.21,0,0,0,5.61.94,16.55,16.55,0,0,0,5.66-.94,11.18,11.18,0,0,0,4.35-2.9A13.25,13.25,0,0,0,331,56.28a25.58,25.58,0,0,0,1-7.65v-41h13V49.78a34.15,34.15,0,0,1-1.61,10.72,23.66,23.66,0,0,1-4.9,8.52,22,22,0,0,1-8.38,5.64A32.94,32.94,0,0,1,318.12,76.66Z"/></svg>